<?xml version="1.0" encoding="UTF-8"?>
<svg version="1.1" xmlns="http://www.w3.org/2000/svg" width="500" height="500">
<path d="M0 0 C3.77126791 1.01180358 4.78414572 1.67621858 7 5 C7.10957031 5.83789062 7.21914062 6.67578125 7.33203125 7.5390625 C7.75041334 10.16671649 7.75041334 10.16671649 10.07421875 11.3359375 C10.93660156 11.67882813 11.79898438 12.02171875 12.6875 12.375 C17.72351274 14.67655883 21.15998234 17.18569497 24 22 C24.875 25.4375 24.875 25.4375 25 28 C22.36 29.65 19.72 31.3 17 33 C17.61488281 33.39832031 18.22976562 33.79664063 18.86328125 34.20703125 C19.67152344 34.73683594 20.47976562 35.26664063 21.3125 35.8125 C22.11300781 36.33457031 22.91351563 36.85664062 23.73828125 37.39453125 C25.74000268 38.81544231 27.41626519 40.12924529 29 42 C29 42.66 29 43.32 29 44 C26.69 45.32 24.38 46.64 22 48 C22.721875 48.556875 23.44375 49.11375 24.1875 49.6875 C26.9951591 51.9960197 29.57140012 54.29384585 32 57 C32 57.99 32 58.98 32 60 C33.98761377 62.09057486 33.98761377 62.09057486 36.5625 64.1875 C40.39759647 67.52843839 43.82392702 70.89899227 47.09765625 74.78125 C49.45119389 77.52623845 51.91413612 80.16434615 54.375 82.8125 C57.90270815 86.6212503 61.26179569 90.50023653 64.5 94.5625 C78.40305876 111.71946612 97.6238212 128.64086727 120.375 131.8125 C137.54638567 133.21743155 153.8393692 125.25495826 169.1394043 118.59545898 C206.0914061 102.53363252 245.65709138 92.71561861 285 107 C297.64291644 112.03232139 308.68947554 118.11804218 319 127 C319.6909375 127.53109375 320.381875 128.0621875 321.09375 128.609375 C330.19231134 135.7126378 337.22648988 147.58862681 339 159 C340.75331274 176.935527 331.19209261 191.07068696 320.6875 204.625 C312.29407996 215.83888102 309.42943289 230.36377082 311.28417969 244.10546875 C313.07937326 254.9825129 315.89755419 265.64145684 318.625 276.3125 C321.06039958 285.85444403 323.2945345 295.1496114 324 305 C324.06960938 305.80695313 324.13921875 306.61390625 324.2109375 307.4453125 C325.49502338 336.58418434 311.37173141 365.55090888 292.1875 386.5625 C248.02020759 433.64721443 183.15844285 444.15672748 121.375 446.6875 C116.25070538 446.84945917 111.12627041 446.93364011 106 447 C105.01471313 447.0133136 104.02942627 447.0266272 103.01428223 447.04034424 C95.90667109 447.13198433 88.7993313 447.19291981 81.69122314 447.22915649 C79.26537031 447.24285474 76.83953807 447.26108973 74.41375732 447.28427124 C40.83836171 447.57900664 7.01146885 443.32844881 -18.20703125 418.87890625 C-32.34636003 404.6149174 -39 384.85544357 -39 365 C-79.26 365 -119.52 365 -161 365 C-158.22213083 363.14808722 -157.10375631 362.65912296 -153.97692871 362.11410522 C-153.16096725 361.96831528 -152.3450058 361.82252533 -151.50431824 361.6723175 C-150.61279556 361.5205455 -149.72127289 361.3687735 -148.80273438 361.21240234 C-147.86101883 361.04629959 -146.91930328 360.88019684 -145.9490509 360.70906067 C-142.83178748 360.16108099 -139.71284556 359.62338238 -136.59375 359.0859375 C-134.43036438 358.70820249 -132.26707615 358.32990937 -130.10388184 357.95108032 C-125.56853693 357.15833398 -121.03240795 356.37029859 -116.49560547 355.5859375 C-110.67344521 354.5792676 -104.85279723 353.56416525 -99.03264618 352.54594994 C-94.56531031 351.76479796 -90.09748299 350.98649065 -85.62947083 350.20921707 C-83.48272433 349.83572371 -81.33606673 349.46171904 -79.1894989 349.08720016 C-76.19254052 348.56508171 -73.1950081 348.04640361 -70.19726562 347.52880859 C-69.30574295 347.37298813 -68.41422028 347.21716766 -67.49568176 347.05662537 C-66.67972031 346.91647507 -65.86375885 346.77632477 -65.02307129 346.63192749 C-63.96009701 346.44777818 -63.96009701 346.44777818 -62.8756485 346.25990868 C-61 346 -61 346 -58 346 C-58 332.8 -58 319.6 -58 306 C-66.58 306 -75.16 306 -84 306 C-84 319.53 -84 333.06 -84 347 C-86.31 347.33 -88.62 347.66 -91 348 C-91 334.14 -91 320.28 -91 306 C-95.62 306 -100.24 306 -105 306 C-105 303.03 -105 300.06 -105 297 C-106.05997192 296.61932373 -106.05997192 296.61932373 -107.14135742 296.23095703 C-110.28287631 294.87819093 -112.90214294 293.21566839 -115.73828125 291.3046875 C-116.80498047 290.58925781 -117.87167969 289.87382812 -118.97070312 289.13671875 C-120.08470367 288.38291335 -121.19863511 287.62900583 -122.3125 286.875 C-123.44567682 286.11285478 -124.57913765 285.35113164 -125.71289062 284.58984375 C-128.4780815 282.73069414 -131.24030379 280.86729186 -134 279 C-132.34815479 275.38371033 -130.84888775 273.96673374 -127.4375 271.875 C-124.12890878 269.98528237 -124.12890878 269.98528237 -122 267 C-122.58136719 266.73316406 -123.16273437 266.46632813 -123.76171875 266.19140625 C-133.56713803 260.97211675 -140.90845389 251.23727161 -144.28125 240.828125 C-146.82916135 230.80264774 -146.51599151 222.18506812 -141.5 213.0625 C-138.43728091 208.22190983 -134.62532326 204.50883862 -130.51953125 200.55078125 C-111.31312991 181.10616098 -106.35918916 153.67480187 -102.8515625 127.68359375 C-94.66702993 67.04200269 -94.66702993 67.04200269 -73 47 C-72.52433594 46.53078125 -72.04867187 46.0615625 -71.55859375 45.578125 C-59.70177374 34.49271256 -44.69971888 31.44691469 -29.02734375 31.828125 C-24.3198703 32.00063284 -19.67371404 32.4065125 -15 33 C-17.64 31.02 -20.28 29.04 -23 27 C-20.0977182 19.59918141 -17.24589431 15.23608102 -9.90234375 11.796875 C-8.29706764 11.12443901 -6.65111278 10.55037093 -5 10 C-4.30748793 8.18731595 -4.30748793 8.18731595 -4 6.0625 C-3.625 3.91015625 -3.625 3.91015625 -3 2 C-2.01 1.34 -1.02 0.68 0 0 Z " fill="#FEB6B6" transform="translate(161,39)"/>
<path d="M0 0 C3.77126791 1.01180358 4.78414572 1.67621858 7 5 C7.10957031 5.83789062 7.21914062 6.67578125 7.33203125 7.5390625 C7.75041334 10.16671649 7.75041334 10.16671649 10.07421875 11.3359375 C10.93660156 11.67882813 11.79898438 12.02171875 12.6875 12.375 C17.72351274 14.67655883 21.15998234 17.18569497 24 22 C24.875 25.4375 24.875 25.4375 25 28 C22.36 29.65 19.72 31.3 17 33 C17.61488281 33.39832031 18.22976562 33.79664063 18.86328125 34.20703125 C19.67152344 34.73683594 20.47976562 35.26664063 21.3125 35.8125 C22.11300781 36.33457031 22.91351563 36.85664062 23.73828125 37.39453125 C25.74000268 38.81544231 27.41626519 40.12924529 29 42 C29 42.66 29 43.32 29 44 C26.69 45.32 24.38 46.64 22 48 C22.721875 48.556875 23.44375 49.11375 24.1875 49.6875 C26.97457299 51.97909334 29.48641528 54.41459857 32 57 C28.66666667 59 25.33333333 61 22 63 C23.01320312 63.58007812 23.01320312 63.58007812 24.046875 64.171875 C24.93890625 64.69265625 25.8309375 65.2134375 26.75 65.75 C27.63171875 66.26046875 28.5134375 66.7709375 29.421875 67.296875 C31.98628385 68.99093903 33.98479227 70.6834528 36 73 C36 73.66 36 74.32 36 75 C32.04 76.98 28.08 78.96 24 81 C25.505625 81.53625 27.01125 82.0725 28.5625 82.625 C33.68260272 84.64973479 37.03940672 87.21160643 41 91 C37.96955338 94.03044662 33.96644645 94.83641989 29.96679688 96.14453125 C26.27707032 97.17194961 26.27707032 97.17194961 24 100 C25.299375 100.20625 26.59875 100.4125 27.9375 100.625 C34.73802927 102.11832317 40.24484028 105.99063363 45 111 C44.67 111.99 44.34 112.98 44 114 C41.63304613 115.03865096 39.38444505 115.89577096 36.9375 116.6875 C36.27427734 116.91244141 35.61105469 117.13738281 34.92773438 117.36914062 C33.28869793 117.92334719 31.64477407 118.46306085 30 119 C30 119.99 30 120.98 30 122 C30.70125 122.21914062 31.4025 122.43828125 32.125 122.6640625 C41.15977123 125.68383658 47.17398125 129.43257784 53 137 C50.56343315 138.14785376 48.12580719 139.29335402 45.6875 140.4375 C44.99720703 140.76298828 44.30691406 141.08847656 43.59570312 141.42382812 C40.75522197 142.75487485 37.97876197 144.00707934 35 145 C35 145.99 35 146.98 35 148 C35.60585937 148.18433594 36.21171875 148.36867187 36.8359375 148.55859375 C44.22403683 151.11601275 49.84804412 155.08826073 55 161 C55.77734375 163.28125 55.77734375 163.28125 56 165 C53.56495491 166.0063655 51.12729136 167.00526413 48.6875 168 C47.99720703 168.28617188 47.30691406 168.57234375 46.59570312 168.8671875 C43.58454326 170.08910744 41.28113016 171 38 171 C38 172.32 38 173.64 38 175 C36.35 175.33 34.7 175.66 33 176 C34.85625 176.3403125 34.85625 176.3403125 36.75 176.6875 C49.56635166 179.58931547 60.04315978 185.47643713 68 196 C64.62473371 198.25017753 61.36925005 199.13004999 57.5 200.125 C56.48486328 200.39763672 56.48486328 200.39763672 55.44921875 200.67578125 C52.54810937 201.43682178 50.0122546 202 47 202 C47 203.65 47 205.3 47 207 C45.02 207.33 43.04 207.66 41 208 C42.74264292 209.74264292 45.13095902 209.54338613 47.47192383 209.89941406 C63.91173797 212.4294294 78.70604914 218.54427306 91 230 C90.67 230.99 90.34 231.98 90 233 C87.68334961 234.07495117 87.68334961 234.07495117 84.65234375 235.04296875 C83.57275391 235.39423828 82.49316406 235.74550781 81.38085938 236.10742188 C80.24455078 236.46384766 79.10824219 236.82027344 77.9375 237.1875 C76.79732422 237.55552734 75.65714844 237.92355469 74.48242188 238.30273438 C71.65821558 239.21262511 68.83088272 240.11114264 66 241 C65.67 242.65 65.34 244.3 65 246 C54.605 246.99 54.605 246.99 44 248 C45.84980469 248.15855469 47.69960937 248.31710937 49.60546875 248.48046875 C64.73158147 249.85732245 79.38344965 251.67951968 94 256 C94.74636719 256.22026855 95.49273437 256.44053711 96.26171875 256.66748047 C110.51246234 261.00891275 124.48112626 267.44178562 136 277 C132.88526539 280.60399602 129.58036541 282.99487037 125.515625 285.48828125 C124.49855469 286.11283203 123.48148437 286.73738281 122.43359375 287.38085938 C120.304918 288.67243012 118.16672943 289.94844663 116.01953125 291.20898438 C110.56379191 294.32019927 110.56379191 294.32019927 107.07617188 299.26318359 C106.70198284 301.69157779 106.70198284 301.69157779 107 305 C102.38 305 97.76 305 93 305 C93 319.19 93 333.38 93 348 C91.02 347.67 89.04 347.34 87 347 C87 333.14 87 319.28 87 305 C78.09 305 69.18 305 60 305 C60 318.86 60 332.72 60 347 C62.31 347 64.62 347 67 347 C68.55277963 347.18440969 70.10127114 347.41368331 71.63867188 347.69921875 C72.48912079 347.85386093 73.3395697 348.00850311 74.21578979 348.16783142 C75.12426666 348.33932205 76.03274353 348.51081268 76.96875 348.6875 C77.94240509 348.86579849 78.91606018 349.04409698 79.91921997 349.22779846 C82.0196375 349.61284912 84.11956913 350.0005579 86.21905518 350.39065552 C91.80768583 351.42858862 97.40000031 352.44627619 102.9921875 353.46484375 C104.14133636 353.67455307 105.29048523 353.88426239 106.47445679 354.10032654 C118.84177264 356.34959018 131.23083537 358.46704549 143.625 360.5625 C144.66116455 360.73789307 145.6973291 360.91328613 146.76489258 361.09399414 C152.50936798 362.0660091 158.25439311 363.03469661 164 364 C164 364.33 164 364.66 164 365 C56.75 365 -50.5 365 -161 365 C-158.22213083 363.14808722 -157.10375631 362.65912296 -153.97692871 362.11410522 C-153.16096725 361.96831528 -152.3450058 361.82252533 -151.50431824 361.6723175 C-150.61279556 361.5205455 -149.72127289 361.3687735 -148.80273438 361.21240234 C-147.86101883 361.04629959 -146.91930328 360.88019684 -145.9490509 360.70906067 C-142.83178748 360.16108099 -139.71284556 359.62338238 -136.59375 359.0859375 C-134.43036438 358.70820249 -132.26707615 358.32990937 -130.10388184 357.95108032 C-125.56853693 357.15833398 -121.03240795 356.37029859 -116.49560547 355.5859375 C-110.67344521 354.5792676 -104.85279723 353.56416525 -99.03264618 352.54594994 C-94.56531031 351.76479796 -90.09748299 350.98649065 -85.62947083 350.20921707 C-83.48272433 349.83572371 -81.33606673 349.46171904 -79.1894989 349.08720016 C-76.19254052 348.56508171 -73.1950081 348.04640361 -70.19726562 347.52880859 C-69.30574295 347.37298813 -68.41422028 347.21716766 -67.49568176 347.05662537 C-66.67972031 346.91647507 -65.86375885 346.77632477 -65.02307129 346.63192749 C-63.96009701 346.44777818 -63.96009701 346.44777818 -62.8756485 346.25990868 C-61 346 -61 346 -58 346 C-58 332.8 -58 319.6 -58 306 C-66.58 306 -75.16 306 -84 306 C-84 319.53 -84 333.06 -84 347 C-86.31 347.33 -88.62 347.66 -91 348 C-91 334.14 -91 320.28 -91 306 C-95.62 306 -100.24 306 -105 306 C-105 303.03 -105 300.06 -105 297 C-106.05997192 296.61932373 -106.05997192 296.61932373 -107.14135742 296.23095703 C-110.28287631 294.87819093 -112.90214294 293.21566839 -115.73828125 291.3046875 C-116.80498047 290.58925781 -117.87167969 289.87382812 -118.97070312 289.13671875 C-120.08470367 288.38291335 -121.19863511 287.62900583 -122.3125 286.875 C-123.44567682 286.11285478 -124.57913765 285.35113164 -125.71289062 284.58984375 C-128.4780815 282.73069414 -131.24030379 280.86729186 -134 279 C-132.34815479 275.38371033 -130.84888775 273.96673374 -127.4375 271.875 C-124.12890878 269.98528237 -124.12890878 269.98528237 -122 267 C-122.58136719 266.73316406 -123.16273437 266.46632813 -123.76171875 266.19140625 C-133.56713803 260.97211675 -140.90845389 251.23727161 -144.28125 240.828125 C-146.82916135 230.80264774 -146.51599151 222.18506812 -141.5 213.0625 C-138.43728091 208.22190983 -134.62532326 204.50883862 -130.51953125 200.55078125 C-111.31312991 181.10616098 -106.35918916 153.67480187 -102.8515625 127.68359375 C-94.66702993 67.04200269 -94.66702993 67.04200269 -73 47 C-72.52433594 46.53078125 -72.04867187 46.0615625 -71.55859375 45.578125 C-59.70177374 34.49271256 -44.69971888 31.44691469 -29.02734375 31.828125 C-24.3198703 32.00063284 -19.67371404 32.4065125 -15 33 C-17.64 31.02 -20.28 29.04 -23 27 C-20.0977182 19.59918141 -17.24589431 15.23608102 -9.90234375 11.796875 C-8.29706764 11.12443901 -6.65111278 10.55037093 -5 10 C-4.30748793 8.18731595 -4.30748793 8.18731595 -4 6.0625 C-3.625 3.91015625 -3.625 3.91015625 -3 2 C-2.01 1.34 -1.02 0.68 0 0 Z " fill="#545454" transform="translate(161,39)"/>
<path d="M0 0 C-0.721875 0.556875 -1.44375 1.11375 -2.1875 1.6875 C-4.97457299 3.97909334 -7.48641528 6.41459857 -10 9 C-7.36 10.65 -4.72 12.3 -2 14 C-5.54039134 16.9156164 -9.1626772 19.50127818 -13 22 C-11.9171875 22.86625 -11.9171875 22.86625 -10.8125 23.75 C-8.20833333 25.83333333 -5.60416667 27.91666667 -3 30 C-3.81984375 30.37511719 -4.6396875 30.75023437 -5.484375 31.13671875 C-6.56203125 31.64847656 -7.6396875 32.16023438 -8.75 32.6875 C-9.81734375 33.18636719 -10.8846875 33.68523437 -11.984375 34.19921875 C-15.17011154 36.10158215 -16.88364099 37.98470208 -19 41 C-18.175 41.2475 -17.35 41.495 -16.5 41.75 C-12.47626529 43.18704811 -8.78020976 45.02354515 -5 47 C-5 47.33 -5 47.66 -5 48 C-5.54527344 48.14695313 -6.09054688 48.29390625 -6.65234375 48.4453125 C-12.89578423 50.30233582 -17.75713396 53.17010495 -23 57 C-22.18015625 57.33773437 -21.3603125 57.67546875 -20.515625 58.0234375 C-19.43796875 58.46945313 -18.3603125 58.91546875 -17.25 59.375 C-15.64898437 60.03628906 -15.64898437 60.03628906 -14.015625 60.7109375 C-11.62444074 61.73307585 -9.30616817 62.80213595 -7 64 C-7 64.66 -7 65.32 -7 66 C-7.88042969 66.31453125 -8.76085937 66.6290625 -9.66796875 66.953125 C-10.82941406 67.38109375 -11.99085938 67.8090625 -13.1875 68.25 C-14.33605469 68.66765625 -15.48460937 69.0853125 -16.66796875 69.515625 C-21.88619572 71.84027476 -24.43189967 73.86379933 -27 79 C-21.72 80.98 -16.44 82.96 -11 85 C-11 85.99 -11 86.98 -11 88 C-11.83402344 88.27972656 -12.66804688 88.55945313 -13.52734375 88.84765625 C-20.91020606 91.47774809 -27.44955758 94.3148381 -33 100 C-33.495 101.485 -33.495 101.485 -34 103 C-32.85660156 103.44730469 -31.71320313 103.89460938 -30.53515625 104.35546875 C-29.04385169 104.96512156 -27.55298864 105.57585513 -26.0625 106.1875 C-25.30775391 106.47947266 -24.55300781 106.77144531 -23.77539062 107.07226562 C-21.71653747 107.93089048 -19.8493358 108.75094228 -18 110 C-16.99609375 112.73828125 -16.99609375 112.73828125 -17 115 C-17.6290625 115.21914062 -18.258125 115.43828125 -18.90625 115.6640625 C-27.62376584 118.89374457 -34.31506915 122.80137102 -39 131 C-38.38253906 131.17015625 -37.76507813 131.3403125 -37.12890625 131.515625 C-31.1661796 133.22185424 -25.59885369 135.33581117 -20 138 C-20 138.99 -20 139.98 -20 141 C-17.69 141.33 -15.38 141.66 -13 142 C-13 142.33 -13 142.66 -13 143 C-14.16402344 143.09474609 -14.16402344 143.09474609 -15.3515625 143.19140625 C-28.40627019 144.67135521 -40.4744796 150.00097499 -48.9375 160.375 C-49.288125 160.91125 -49.63875 161.4475 -50 162 C-45.83314771 163.79619652 -41.57031629 164.9925977 -37.1875 166.125 C-36.49462891 166.30675781 -35.80175781 166.48851562 -35.08789062 166.67578125 C-33.39267339 167.12004508 -31.69643778 167.5604199 -30 168 C-29.67 169.32 -29.34 170.64 -29 172 C-25.7 172.66 -22.4 173.32 -19 174 C-19 174.33 -19 174.66 -19 175 C-20.258125 175.14695313 -21.51625 175.29390625 -22.8125 175.4453125 C-41.38601837 177.79846892 -60.78606619 182.73258273 -73 198 C-64.75 200.97 -56.5 203.94 -48 207 C-48 208.65 -48 210.3 -48 212 C-47.03320312 211.97679687 -46.06640625 211.95359375 -45.0703125 211.9296875 C-37.4344481 211.82384384 -30.44188767 212.03884372 -23 214 C-23 214.33 -23 214.66 -23 215 C-24.47533203 215.05607422 -24.47533203 215.05607422 -25.98046875 215.11328125 C-51.75146015 216.26377194 -78.39377191 220.15449988 -101.26953125 232.80859375 C-104 234 -104 234 -106.50390625 234 C-109.90543645 232.63725864 -112.31836879 230.48873705 -114.9375 228 C-115.46529053 227.5045166 -115.99308105 227.0090332 -116.53686523 226.49853516 C-125.60605095 217.76420737 -130.18601935 208.29216486 -130.9921875 195.69140625 C-131.01971883 186.20686374 -127.14583429 178.38155063 -120.6640625 171.53125 C-118.95281309 169.86738903 -117.23788451 168.2073047 -115.51953125 166.55078125 C-96.31312991 147.10616098 -91.35918916 119.67480187 -87.8515625 93.68359375 C-79.66702993 33.04200269 -79.66702993 33.04200269 -58 13 C-57.28650391 12.29617187 -57.28650391 12.29617187 -56.55859375 11.578125 C-41.62247274 -2.38624838 -19.21402905 -5.28739866 0 0 Z " fill="#FEB6B6" transform="translate(146,73)"/>
<path d="M0 0 C3.59890111 2.1440262 5.46892085 4.14225608 7 8 C7.22705078 10.74902344 7.22705078 10.74902344 7.1953125 13.859375 C7.18886719 14.97441406 7.18242187 16.08945312 7.17578125 17.23828125 C7.15902344 18.39714844 7.14226562 19.55601562 7.125 20.75 C7.11597656 21.92433594 7.10695312 23.09867187 7.09765625 24.30859375 C7.0741016 27.20581629 7.03823108 30.10293396 7 33 C-0.59 33 -8.18 33 -16 33 C-16.13510945 28.79058993 -16.23419583 24.58552719 -16.3125 20.375 C-16.35439453 19.18519531 -16.39628906 17.99539063 -16.43945312 16.76953125 C-16.57759344 6.87868487 -16.57759344 6.87868487 -13.60546875 3.2265625 C-9.24294518 -0.5015311 -5.60373662 -0.70773836 0 0 Z " fill="#F9B3B3" transform="translate(167,347)"/>
</svg>
