<?xml version="1.0" encoding="UTF-8"?>
<svg version="1.1" xmlns="http://www.w3.org/2000/svg" width="500" height="500">
<path d="M0 0 C2.0625 0.6875 2.0625 0.6875 4 2 C4.12375 2.639375 4.2475 3.27875 4.375 3.9375 C4.684375 4.9584375 4.684375 4.9584375 5 6 C5.928125 6.45375 6.85625 6.9075 7.8125 7.375 C11.63010063 9.32122777 12.94909928 11.29260255 15 15 C15 15.66 15 16.32 15 17 C13 18.625 13 18.625 11 20 C11.804375 20.4125 12.60875 20.825 13.4375 21.25 C16 23 16 23 16.8125 25.1875 C16.874375 25.785625 16.93625 26.38375 17 27 C15.68 27.33 14.36 27.66 13 28 C13 28.66 13 29.32 13 30 C13.763125 30.226875 14.52625 30.45375 15.3125 30.6875 C18.66064744 32.32264177 19.15003874 33.79814397 21 37 C22.64982357 38.77075305 24.3806822 40.43935469 26.1171875 42.125 C29.26012748 45.25489874 32.10032838 48.64630881 35 52 C45.36440786 63.97234403 56.68317944 76.78937995 73.4375 78.3125 C84.92345712 78.04199739 96.38790686 71.94354883 106.80249023 67.61767578 C126.37929271 59.57805364 149.27393841 55.65800375 169.58984375 63.5234375 C182.38208665 69.0623468 194.32628138 76.76233065 200.3125 89.875 C201.93786991 97.26304503 201.46866315 104.21660845 198 111 C196.40943097 113.39018752 194.71047621 115.69464217 193 118 C185.9764579 127.49290339 184.53062408 135.1615939 184 147 C184.77730469 147.2990625 185.55460937 147.598125 186.35546875 147.90625 C188.97730584 148.99061394 190.88400558 150.11911608 193 152 C193 152.66 193 153.32 193 154 C199.27 154 205.54 154 212 154 C212 158.62 212 163.24 212 168 C219.26 168 226.52 168 234 168 C234.33 177.24 234.66 186.48 235 196 C236.32 195.67 237.64 195.34 239 195 C239.33 186.09 239.66 177.18 240 168 C247.26 168 254.52 168 262 168 C262.33 169.32 262.66 170.64 263 172 C263.9075 171.360625 264.815 170.72125 265.75 170.0625 C270.221698 167.22469165 273.37343156 166.86084483 278.625 166.875 C279.58664062 166.87242187 280.54828125 166.86984375 281.5390625 166.8671875 C284 167 284 167 286 168 C286 159.42 286 150.84 286 142 C293.26 142 300.52 142 308 142 C308.33 143.32 308.66 144.64 309 146 C309.66 145.67 310.32 145.34 311 145 C315.77050211 144.48495464 319.72657529 144.31022828 324 146.625 C327.27336738 150.51212377 328.05243202 153.50568738 327.875 158.5625 C326.92403545 162.29843217 325.61577934 164.2154607 323 167 C323.99 167.33 324.98 167.66 326 168 C326.33 169.98 326.66 171.96 327 174 C327.639375 173.401875 328.27875 172.80375 328.9375 172.1875 C336.53361898 166.76170073 344.84631969 166.00141669 354 167 C363.13265948 169.30485029 368.13445983 174.00661258 373 182 C375.0996038 188.2988114 375.21060109 196.32245657 372.4375 202.4375 C369.04740936 208.07575601 363.86384985 212.47202065 357.5625 214.52734375 C348.39247843 216.21876541 337.94066685 216.45806756 330 211 C328.97255593 210.02821881 327.96378087 209.03495238 327 208 C326.67 209.98 326.34 211.96 326 214 C318.45672761 214.24516904 310.91303539 214.45734014 303.36816406 214.64697266 C300.8034991 214.71528171 298.23902111 214.79104539 295.67480469 214.87451172 C291.98136321 214.99342392 288.28807161 215.08519827 284.59375 215.171875 C282.8839093 215.23565338 282.8839093 215.23565338 281.13952637 215.30072021 C271.72063628 215.47787527 266.07558303 213.19113515 259 207 C258.319375 207.763125 257.63875 208.52625 256.9375 209.3125 C250.94206699 214.79768339 245.43456619 215.46844182 237.625 215.3125 C236.82578125 215.31572266 236.0265625 215.31894531 235.203125 215.32226562 C231.01298808 215.28497476 227.27429537 214.90117348 223.2109375 213.85546875 C219.39051557 212.91213412 217.58591116 213.24595665 214 215 C207.4840729 215.62794291 200.34912301 216.25186701 195 212 C193.39866119 209.7268061 192.23283616 207.5130891 191 205 C187.63044548 208.67587766 185.13307644 212.39732266 182.6875 216.75 C170.22874176 238.42556003 148.98628972 251.65516633 125.30078125 258.37109375 C103.6813631 264.11890524 81.28309507 265.55183672 59 266 C57.88915039 266.02723145 56.77830078 266.05446289 55.63378906 266.08251953 C31.21253034 266.62895636 7.34514261 266.22445907 -11.6875 248.8125 C-17.13278862 243.11394214 -20.95110713 235.5809036 -23 228 C-23.7425 228.350625 -24.485 228.70125 -25.25 229.0625 C-28.1322726 230.04509293 -29.21176345 230.0326802 -32 229 C-32 227.68 -32 226.36 -32 225 C-30.02 225.66 -28.04 226.32 -26 227 C-26 226.34 -26 225.68 -26 225 C-27.65 224.67 -29.3 224.34 -31 224 C-31.495 221.525 -31.495 221.525 -32 219 C-31.34 218.67 -30.68 218.34 -30 218 C-63.165 217.505 -63.165 217.505 -97 217 C-96.505 216.01 -96.505 216.01 -96 215 C-93.53531117 214.39240958 -91.1390738 213.91012719 -88.640625 213.4921875 C-87.89923279 213.36184113 -87.15784058 213.23149475 -86.39398193 213.09719849 C-84.82099593 212.82250128 -83.24725354 212.55210645 -81.67285156 212.28564453 C-79.27224685 211.87877058 -76.87437276 211.45815407 -74.4765625 211.03515625 C-72.94805895 210.77001177 -71.41941706 210.50566334 -69.890625 210.2421875 C-69.17585999 210.11721893 -68.46109497 209.99225037 -67.72467041 209.86349487 C-64.04408802 209.24561205 -60.76355429 209 -57 209 C-57 199.76 -57 190.52 -57 181 C-58.98 181 -60.96 181 -63 181 C-62.99871094 180.29488281 -62.99742188 179.58976563 -62.99609375 178.86328125 C-64.57580224 174.35773137 -68.15252588 172.68841427 -72.0625 170.1875 C-72.82111328 169.68541016 -73.57972656 169.18332031 -74.36132812 168.66601562 C-76.23250774 167.43033098 -78.11168518 166.20927034 -80 165 C-78.7625 163.824375 -78.7625 163.824375 -77.5 162.625 C-74.77011494 160.36278736 -74.77011494 160.36278736 -75 158 C-75.886875 157.34 -76.77375 156.68 -77.6875 156 C-83.06863772 151.66448619 -85.91620362 145.11085279 -87 138.375 C-87.31309616 132.41573642 -85.85249143 128.20051331 -82.00390625 123.62890625 C-80.43672399 121.93486944 -78.86227626 120.24752995 -77.28125 118.56640625 C-64.79225639 104.51628844 -62.97148806 85.83669136 -60.22265625 67.99609375 C-57.7661046 52.15364067 -54.26964269 36.30759366 -41.3046875 25.65625 C-33.64971029 20.15504604 -27.06497475 18.82855704 -17.6875 18.9375 C-16.94693359 18.94201172 -16.20636719 18.94652344 -15.44335938 18.95117188 C-13.62887101 18.96287825 -11.81442466 18.98081102 -10 19 C-11.32 17.68 -12.64 16.36 -14 15 C-11.18606643 10.12973035 -8.93677445 8.46838722 -4 6 C-2.71745356 3.46229997 -2.71745356 3.46229997 -2 1 C-1.34 0.67 -0.68 0.34 0 0 Z M189 160 C188.30840599 161.84725052 188.30840599 161.84725052 188 164 C188.99 165.485 188.99 165.485 190 167 C190 164.69 190 162.38 190 160 C189.67 160 189.34 160 189 160 Z M308 166 C308 166.66 308 167.32 308 168 C308.99 167.67 309.98 167.34 311 167 C310.01 166.67 309.02 166.34 308 166 Z M212 186 C212 188.31 212 190.62 212 193 C212.33 193 212.66 193 213 193 C213 190.69 213 188.38 213 186 C212.67 186 212.34 186 212 186 Z M278 189 C277.7499227 191.54190002 277.7499227 191.54190002 278 194 C279.11836224 195.34404775 279.11836224 195.34404775 282 195.125 C284.88163776 195.34404775 284.88163776 195.34404775 286 194 C286.16666667 191 286.16666667 191 286 188 C284.94689723 186.72996677 284.94689723 186.72996677 282.5625 186.8125 C279.83265325 186.73160017 279.83265325 186.73160017 278 189 Z M343 189 C343.32198966 192.09926819 343.32198966 192.09926819 344 195 C345.78141747 195.86358623 345.78141747 195.86358623 348 196 C350.27144074 194.14567913 350.27144074 194.14567913 352 192 C351.34 190.35 350.68 188.7 350 187 C346.04542152 186.65176193 346.04542152 186.65176193 343 189 Z M-24 219 C-24.33 220.65 -24.66 222.3 -25 224 C-24.34 224 -23.68 224 -23 224 C-23 222.35 -23 220.7 -23 219 C-23.33 219 -23.66 219 -24 219 Z M-29 220 C-28.67 220.99 -28.34 221.98 -28 223 C-27.34 223 -26.68 223 -26 223 C-26.33 222.01 -26.66 221.02 -27 220 C-27.66 220 -28.32 220 -29 220 Z " fill="#FBF7F7" transform="translate(116,102)"/>
<path d="M0 0 C2.56111191 1.05859292 3.94453166 2.41324985 5.86328125 4.41015625 C6.56195313 5.13589844 7.260625 5.86164063 7.98046875 6.609375 C11.07890923 9.95919839 14.07101043 13.39239008 17.05078125 16.84765625 C27.41323731 28.82075623 38.73529383 41.63715739 55.48828125 43.16015625 C66.97423837 42.88965364 78.43868811 36.79120508 88.85327148 32.46533203 C108.43007396 24.42570989 131.32471966 20.50566 151.640625 28.37109375 C164.4328679 33.91000305 176.37706263 41.6099869 182.36328125 54.72265625 C183.98865116 62.11070128 183.5194444 69.0642647 180.05078125 75.84765625 C178.46021222 78.23784377 176.76125746 80.54229842 175.05078125 82.84765625 C168.02723915 92.34055964 166.58140533 100.00925015 166.05078125 111.84765625 C164.79265625 111.51765625 163.53453125 111.18765625 162.23828125 110.84765625 C152.05185018 108.61787055 144.26956339 109.46166891 135.36328125 115.03515625 C132.02735813 117.49596052 130.49503897 120.2125953 128.875 123.98046875 C128.05078125 125.84765625 128.05078125 125.84765625 126.05078125 128.84765625 C125.68726563 128.32816406 125.32375 127.80867188 124.94921875 127.2734375 C118.99368052 119.01203703 112.79719749 114.06509555 103.05078125 110.84765625 C97.97906774 110.14965744 92.97757463 110.05934488 87.86328125 110.03515625 C81.02609375 109.94234375 81.02609375 109.94234375 74.05078125 109.84765625 C74.05078125 123.04765625 74.05078125 136.24765625 74.05078125 149.84765625 C71.14711244 146.94398744 70.06830795 143.31519469 68.57421875 139.55859375 C68.24410797 138.74016998 67.91399719 137.92174622 67.57388306 137.07852173 C66.51971209 134.46180233 65.4726767 131.8422938 64.42578125 129.22265625 C63.71270738 127.4490306 62.99917144 125.67559065 62.28515625 123.90234375 C60.53411388 119.55324316 58.7927446 115.20044546 57.05078125 110.84765625 C51.11078125 110.84765625 45.17078125 110.84765625 39.05078125 110.84765625 C37.91189453 113.75771484 37.91189453 113.75771484 36.75 116.7265625 C36.00555607 118.62648801 35.26073048 120.52626349 34.51586914 122.42602539 C34.00244992 123.73609069 33.48942125 125.04630911 32.97680664 126.35668945 C32.23559088 128.25122828 31.49292466 130.14519325 30.75 132.0390625 C30.30487061 133.17545166 29.85974121 134.31184082 29.40112305 135.48266602 C28.00430819 138.963465 26.54106311 142.40604256 25.05078125 145.84765625 C22.74078125 145.84765625 20.43078125 145.84765625 18.05078125 145.84765625 C18.05078125 150.46765625 18.05078125 155.08765625 18.05078125 159.84765625 C13.94474707 156.5628289 12.3375597 155.18049964 10.05078125 150.84765625 C10.53289062 150.32816406 11.015 149.80867187 11.51171875 149.2734375 C12.45917969 148.22736328 12.45917969 148.22736328 13.42578125 147.16015625 C14.05226562 146.47566406 14.67875 145.79117188 15.32421875 145.0859375 C19.84415654 139.22638014 19.77235762 132.97091012 19.05078125 125.84765625 C17.68967906 120.59276804 15.35528956 117.74671384 10.80078125 114.84765625 C9.56196548 114.16042998 8.31542131 113.48611531 7.05078125 112.84765625 C7.54578125 111.85765625 7.54578125 111.85765625 8.05078125 110.84765625 C12.34078125 110.84765625 16.63078125 110.84765625 21.05078125 110.84765625 C21.05078125 109.52765625 21.05078125 108.20765625 21.05078125 106.84765625 C25.67078125 105.19765625 30.29078125 103.54765625 35.05078125 101.84765625 C26.02242752 94.23551487 15.65598301 90.60284478 4.05078125 88.84765625 C7.80078125 86.84765625 7.80078125 86.84765625 10.05078125 86.84765625 C10.38078125 85.85765625 10.71078125 84.86765625 11.05078125 83.84765625 C14.68078125 83.18765625 18.31078125 82.52765625 22.05078125 81.84765625 C16.19056851 73.73351554 9.46825132 71.85915471 0.05078125 69.84765625 C0.69015625 69.74453125 1.32953125 69.64140625 1.98828125 69.53515625 C2.66890625 69.30828125 3.34953125 69.08140625 4.05078125 68.84765625 C4.38078125 67.85765625 4.71078125 66.86765625 5.05078125 65.84765625 C7.3359375 64.8984375 7.3359375 64.8984375 10.11328125 64.16015625 C11.03238281 63.90878906 11.95148438 63.65742188 12.8984375 63.3984375 C13.60871094 63.21667969 14.31898438 63.03492188 15.05078125 62.84765625 C11.33763599 57.74208152 7.84860596 55.29338876 2.05078125 52.84765625 C2.38078125 51.85765625 2.71078125 50.86765625 3.05078125 49.84765625 C6.54424095 48.1009264 9.11923693 46.84765625 13.05078125 46.84765625 C9.00986245 42.15497636 4.7816978 40.08258885 -0.94921875 37.84765625 C-0.94921875 36.85765625 -0.94921875 35.86765625 -0.94921875 34.84765625 C1.69078125 33.85765625 4.33078125 32.86765625 7.05078125 31.84765625 C6.36047537 28.69844286 6.36047537 28.69844286 3.765625 27.4609375 C2.84910156 27.03167969 1.93257812 26.60242188 0.98828125 26.16015625 C0.06917969 25.72316406 -0.84992188 25.28617188 -1.796875 24.8359375 C-2.50714844 24.50980469 -3.21742188 24.18367188 -3.94921875 23.84765625 C-1.69402655 21.59246405 0.05553995 20.87042157 3.05078125 19.84765625 C4.04078125 19.84765625 5.03078125 19.84765625 6.05078125 19.84765625 C6.05078125 19.18765625 6.05078125 18.52765625 6.05078125 17.84765625 C5.32890625 17.55890625 4.60703125 17.27015625 3.86328125 16.97265625 C1.25911458 15.93098958 -1.34505208 14.88932292 -3.94921875 13.84765625 C-3.94921875 13.18765625 -3.94921875 12.52765625 -3.94921875 11.84765625 C-1.63921875 11.18765625 0.67078125 10.52765625 3.05078125 9.84765625 C2.28765625 9.08453125 1.52453125 8.32140625 0.73828125 7.53515625 C-1.15755208 5.63932292 -3.05338542 3.74348958 -4.94921875 1.84765625 C-1.94921875 -0.15234375 -1.94921875 -0.15234375 0 0 Z " fill="#FEB6B6" transform="translate(133.94921875,137.15234375)"/>
<path d="M0 0 C0.92941406 0.55429687 1.85882813 1.10859375 2.81640625 1.6796875 C4.06486499 2.41186631 5.31357652 3.14361421 6.5625 3.875 C7.17158203 4.23980469 7.78066406 4.60460937 8.40820312 4.98046875 C17.62524553 10.34488497 27.87344936 11.87496154 38.28125 9.13671875 C41.62123241 7.92817248 44.82435642 6.58782179 48 5 C42.71332802 23.21868499 26.72252103 35.93209932 10.8671875 44.93359375 C-16.25783088 59.72967449 -48.74742404 61.39155249 -79 62 C-80.66627441 62.04084717 -80.66627441 62.04084717 -82.36621094 62.08251953 C-106.78746966 62.62895636 -130.65485739 62.22445907 -149.6875 44.8125 C-155.13278862 39.11394214 -158.95110713 31.5809036 -161 24 C-161.7425 24.350625 -162.485 24.70125 -163.25 25.0625 C-166.1322726 26.04509293 -167.21176345 26.0326802 -170 25 C-170 23.68 -170 22.36 -170 21 C-168.02 21.66 -166.04 22.32 -164 23 C-164 22.34 -164 21.68 -164 21 C-165.65 20.67 -167.3 20.34 -169 20 C-169.33 18.35 -169.66 16.7 -170 15 C-163.23411279 12.9344527 -157.04406312 12.76039071 -150 12.875 C-148.93910156 12.88402344 -147.87820312 12.89304687 -146.78515625 12.90234375 C-144.18986362 12.92572476 -141.59505535 12.95849444 -139 13 C-139.99 13.33 -140.98 13.66 -142 14 C-141.67 14.66 -141.34 15.32 -141 16 C-140.86584528 18.6723621 -140.95681459 21.32250488 -141 24 C-140.34 24 -139.68 24 -139 24 C-139 22.02 -139 20.04 -139 18 C-138.360625 18.804375 -137.72125 19.60875 -137.0625 20.4375 C-135.59396498 22.2750504 -135.59396498 22.2750504 -134 24 C-133.67 21.36 -133.34 18.72 -133 16 C-132.34 16 -131.68 16 -131 16 C-131 15.01 -131 14.02 -131 13 C-127.37 13 -123.74 13 -120 13 C-121.32 13.33 -122.64 13.66 -124 14 C-124.33 14.66 -124.66 15.32 -125 16 C-125 15.34 -125 14.68 -125 14 C-126.32 14 -127.64 14 -129 14 C-128.505 14.99 -128.505 14.99 -128 16 C-127.86584528 18.6723621 -127.95681459 21.32250488 -128 24 C-125.69 24 -123.38 24 -121 24 C-121 22.02 -121 20.04 -121 18 C-118.66666667 20.33333333 -116.33333333 22.66666667 -114 25 C-114.01160156 24.37351562 -114.02320313 23.74703125 -114.03515625 23.1015625 C-114.04417969 22.28429687 -114.05320313 21.46703125 -114.0625 20.625 C-114.07410156 19.81289063 -114.08570313 19.00078125 -114.09765625 18.1640625 C-114 16 -114 16 -113 14 C-114.32 13.67 -115.64 13.34 -117 13 C-103.47 13 -89.94 13 -76 13 C-76 13.33 -76 13.66 -76 14 C-77.98 14 -79.96 14 -82 14 C-81.505 14.99 -81.505 14.99 -81 16 C-80.86584528 18.6723621 -80.95681459 21.32250488 -81 24 C-80.505 22.515 -80.505 22.515 -80 21 C-79.01 21 -78.02 21 -77 21 C-76.505 22.98 -76.505 22.98 -76 25 C-75.43796875 24.82597656 -74.8759375 24.65195312 -74.296875 24.47265625 C-71.75443245 23.94946654 -69.81547663 24.09795162 -67.25 24.4375 C-66.45078125 24.53933594 -65.6515625 24.64117187 -64.828125 24.74609375 C-64.22484375 24.82988281 -63.6215625 24.91367187 -63 25 C-64.65 24.67 -66.3 24.34 -68 24 C-68 21.36 -68 18.72 -68 16 C-66.68 16 -65.36 16 -64 16 C-63.67 15.34 -63.34 14.68 -63 14 C-65.64 14 -68.28 14 -71 14 C-71 13.67 -71 13.34 -71 13 C-65.72 13 -60.44 13 -55 13 C-55.99 13.33 -56.98 13.66 -58 14 C-57.505 15.485 -57.505 15.485 -57 17 C-57.92203709 19.36522558 -58.91698965 21.70401807 -60 24 C-59.34 24 -58.68 24 -58 24 C-58 23.34 -58 22.68 -58 22 C-56.35 22 -54.7 22 -53 22 C-53 22.66 -53 23.32 -53 24 C-50.36 24 -47.72 24 -45 24 C-44.67 22.68 -44.34 21.36 -44 20 C-43.505 21.98 -43.505 21.98 -43 24 C-42.34 24 -41.68 24 -41 24 C-40.67 22.35 -40.34 20.7 -40 19 C-39.67 19 -39.34 19 -39 19 C-39 20.65 -39 22.3 -39 24 C-38.34 24 -37.68 24 -37 24 C-37 21.03 -37 18.06 -37 15 C-39.94729537 17.63106761 -39.94729537 17.63106761 -41 20 C-41.66 20 -42.32 20 -43 20 C-43.4021875 18.5459375 -43.4021875 18.5459375 -43.8125 17.0625 C-44.204375 16.051875 -44.59625 15.04125 -45 14 C-45.99 13.67 -46.98 13.34 -48 13 C-44.535 12.505 -44.535 12.505 -41 12 C-41 11.34 -41 10.68 -41 10 C-40.32533691 9.9906543 -39.65067383 9.98130859 -38.95556641 9.97167969 C-35.8446865 9.91739231 -32.73521771 9.83386285 -29.625 9.75 C-28.56410156 9.73582031 -27.50320312 9.72164063 -26.41015625 9.70703125 C-15.91186276 9.38499771 -8.23073726 6.44144655 0 0 Z M-162 15 C-162.33 16.65 -162.66 18.3 -163 20 C-162.34 20 -161.68 20 -161 20 C-161 18.35 -161 16.7 -161 15 C-161.33 15 -161.66 15 -162 15 Z M-167 16 C-166.67 16.99 -166.34 17.98 -166 19 C-165.34 19 -164.68 19 -164 19 C-164.33 18.01 -164.66 17.02 -165 16 C-165.66 16 -166.32 16 -167 16 Z " fill="#FBB4B4" transform="translate(254,306)"/>
<path d="M0 0 C2.0625 0.6875 2.0625 0.6875 4 2 C4.12375 2.639375 4.2475 3.27875 4.375 3.9375 C4.58125 4.618125 4.7875 5.29875 5 6 C5.928125 6.45375 6.85625 6.9075 7.8125 7.375 C11.63010063 9.32122777 12.94909928 11.29260255 15 15 C15 15.66 15 16.32 15 17 C13 18.625 13 18.625 11 20 C11.804375 20.4125 12.60875 20.825 13.4375 21.25 C16 23 16 23 16.8125 25.1875 C16.874375 25.785625 16.93625 26.38375 17 27 C15.68 27.33 14.36 27.66 13 28 C13 28.66 13 29.32 13 30 C14.65 30.66 16.3 31.32 18 32 C18 32.99 18 33.98 18 35 C16 36.6875 16 36.6875 14 38 C14.969375 38.598125 15.93875 39.19625 16.9375 39.8125 C20 42 20 42 21 45 C18.35261084 46.4606285 17.10551666 47 14 47 C14 47.66 14 48.32 14 49 C14.721875 49.103125 15.44375 49.20625 16.1875 49.3125 C19.27793421 50.06793947 21.41743841 51.15531315 24 53 C24 53.66 24 54.32 24 55 C21.36 55.99 18.72 56.98 16 58 C17.85384858 59.85384858 19.36093785 60.86718769 21.625 62.125 C22.73875 62.74375 23.8525 63.3625 25 64 C25 65.32 25 66.64 25 68 C21.04 68.99 21.04 68.99 17 70 C17 70.99 17 71.98 17 73 C17.825 73.04125 18.65 73.0825 19.5 73.125 C24.15243773 74.28810943 27.54410071 76.69321312 31 80 C31 80.66 31 81.32 31 82 C27.7 83.32 24.4 84.64 21 86 C21 86.66 21 87.32 21 88 C21.79664063 88.36351562 21.79664063 88.36351562 22.609375 88.734375 C26.69821118 90.67433377 30.11254699 92.39068373 33 96 C33 96.66 33 97.32 33 98 C32.28972656 98.26554687 31.57945312 98.53109375 30.84765625 98.8046875 C29.92855469 99.15789062 29.00945312 99.51109375 28.0625 99.875 C27.14597656 100.22304687 26.22945313 100.57109375 25.28515625 100.9296875 C22.85058944 101.7819086 22.85058944 101.7819086 22 104 C22.6290625 104.20753906 23.258125 104.41507812 23.90625 104.62890625 C30.32043067 106.93762489 35.44464475 109.83387086 40 115 C40 115.66 40 116.32 40 117 C39.24074219 117.18175781 38.48148437 117.36351562 37.69921875 117.55078125 C36.70535156 117.80214844 35.71148437 118.05351562 34.6875 118.3125 C33.70136719 118.55613281 32.71523437 118.79976563 31.69921875 119.05078125 C28.99858988 120.00049589 27.79043784 120.81847677 26 123 C26.96679688 123.29132813 27.93359375 123.58265625 28.9296875 123.8828125 C48.55368445 129.98564325 48.55368445 129.98564325 54 138 C52.06441401 138.67220351 50.12645628 139.33758077 48.1875 140 C47.10855469 140.37125 46.02960938 140.7425 44.91796875 141.125 C42 142 42 142 39 142 C39 143.32 39 144.64 39 146 C36.20865148 146.19425873 33.41716313 146.38069517 30.625 146.5625 C29.8309375 146.61857422 29.036875 146.67464844 28.21875 146.73242188 C22.2265625 147.11328125 22.2265625 147.11328125 20 146 C17.67726841 145.84479443 15.35040687 145.74980833 13.0234375 145.68359375 C11.99556625 145.6524221 11.99556625 145.6524221 10.94692993 145.62062073 C8.75638931 145.55519815 6.56572811 145.49627446 4.375 145.4375 C2.8906125 145.39430782 1.40623722 145.3506933 -0.078125 145.30664062 C-3.71862084 145.19952447 -7.35925251 145.09823638 -11 145 C-11 147.31 -11 149.62 -11 152 C-12.98376655 151.01474401 -14.9565922 150.02362026 -16.90234375 148.96484375 C-22.71383403 146.03121238 -27.89696649 145.46837832 -34.375 145.2734375 C-35.24125 145.18320313 -36.1075 145.09296875 -37 145 C-37.33 144.34 -37.66 143.68 -38 143 C-40.51674219 142.03985558 -42.99679506 141.17956016 -45.5625 140.375 C-46.27341797 140.14554688 -46.98433594 139.91609375 -47.71679688 139.6796875 C-49.47570953 139.11305792 -51.23759039 138.55565742 -53 138 C-49.97554463 133.65374561 -47.05977104 131.66246393 -42.3125 129.375 C-41.69616699 129.07650146 -41.07983398 128.77800293 -40.44482422 128.47045898 C-35.72489296 126.22876884 -31.00781643 124.46780826 -26 123 C-26.33 122.01 -26.66 121.02 -27 120 C-29.79172239 118.96683512 -29.79172239 118.96683512 -33.0625 118.3125 C-34.16722656 118.06113281 -35.27195312 117.80976563 -36.41015625 117.55078125 C-37.26480469 117.36902344 -38.11945313 117.18726563 -39 117 C-36.82036205 111.50246872 -31.87797714 108.96109621 -27 106 C-23.375 104.5625 -23.375 104.5625 -21 104 C-22.4163067 101.1673866 -24.14497293 100.98292167 -27.0625 99.875 C-27.98160156 99.52179688 -28.90070313 99.16859375 -29.84765625 98.8046875 C-30.55792969 98.53914063 -31.26820312 98.27359375 -32 98 C-30.54845769 94.37114422 -28.7599362 92.84567327 -25.5 90.75 C-24.7059375 90.22921875 -23.911875 89.7084375 -23.09375 89.171875 C-21 88 -21 88 -19 88 C-20.35304209 85.29391583 -21.80966544 85.03816953 -24.5625 83.875 C-25.38878906 83.52179688 -26.21507813 83.16859375 -27.06640625 82.8046875 C-27.70449219 82.53914063 -28.34257813 82.27359375 -29 82 C-28.703125 80.13671875 -28.703125 80.13671875 -28 78 C-24.04307058 75.33668212 -20.79027826 73.58063979 -16 73 C-16 72.01 -16 71.02 -16 70 C-17.3921875 69.814375 -17.3921875 69.814375 -18.8125 69.625 C-22 69 -22 69 -25 67 C-23.60344703 63.50126729 -22.28739516 62.29108169 -18.875 60.75 C-18.15054688 60.41484375 -17.42609375 60.0796875 -16.6796875 59.734375 C-16.12539062 59.49203125 -15.57109375 59.2496875 -15 59 C-17.66559313 57.22293791 -20.0280615 56.12451727 -23 55 C-19.87378374 51.60582235 -17.43458973 49.3937282 -13 48 C-16.465 46.515 -16.465 46.515 -20 45 C-18.50902342 41.2047869 -16.24299151 39.38957269 -13 37 C-14.32 35.68 -15.64 34.36 -17 33 C-13.25 30 -13.25 30 -11 30 C-12.32 28.68 -13.64 27.36 -15 26 C-14.505 24.515 -14.505 24.515 -14 23 C-11.4375 21.8125 -11.4375 21.8125 -9 21 C-11.475 18.03 -11.475 18.03 -14 15 C-11.18606643 10.12973035 -8.93677445 8.46838722 -4 6 C-2.71745356 3.46229997 -2.71745356 3.46229997 -2 1 C-1.34 0.67 -0.68 0.34 0 0 Z " fill="#565555" transform="translate(116,102)"/>
<path d="M0 0 C26 0 26 0 35 4 C40.50773155 9.73722037 41.40749369 13.11379333 41.3515625 20.87890625 C40.71296107 26.54826783 37.93746176 30.17650658 33.875 34 C32 35 32 35 29 35 C29.49628906 35.61746094 29.99257812 36.23492187 30.50390625 36.87109375 C35.05309463 42.54247281 39.55025872 48.25035198 44 54 C49.34695793 42.8169047 53.74011548 31.23510788 58.2878418 19.71191406 C59.34916382 17.02553899 60.41463285 14.34083668 61.48046875 11.65625 C61.96642769 10.41881042 61.96642769 10.41881042 62.46220398 9.15637207 C62.76624649 8.39127319 63.070289 7.62617432 63.38354492 6.83789062 C63.64826096 6.16713501 63.91297699 5.49637939 64.18571472 4.80529785 C65 3 65 3 67 0 C71.29 0 75.58 0 80 0 C87.26 18.15 94.52 36.3 102 55 C102.33 36.85 102.66 18.7 103 0 C131.89673913 0 131.89673913 0 142.17578125 8.15234375 C148.07657774 14.12895347 151.13430649 21.133574 151.375 29.4375 C151.27911934 37.8837148 149.49041299 44.80875605 144.015625 51.3828125 C133.14260223 61.83171027 121.57569788 61.52890939 107.375 61.25 C105.58986381 61.22990223 103.80470575 61.21165726 102.01953125 61.1953125 C97.6791404 61.15158086 93.3398154 61.08273589 89 61 C88.3291288 59.3767313 87.66342971 57.75132422 87 56.125 C86.62875 55.22007812 86.2575 54.31515625 85.875 53.3828125 C85 51 85 51 85 49 C77.08 49 69.16 49 61 49 C60.01 52.3 59.02 55.6 58 59 C57.505 59.99 57.505 59.99 57 61 C33.7195418 63.07528656 33.7195418 63.07528656 28.39453125 58.71484375 C25.87086793 55.60540167 23.93447751 52.50297278 22 49 C20.51494401 46.86992606 18.94452528 44.82026577 17.375 42.75 C16.26125 41.1825 15.1475 39.615 14 38 C13.67 45.59 13.34 53.18 13 61 C8.71 61 4.42 61 0 61 C0 40.87 0 20.74 0 0 Z " fill="#1D1919" transform="translate(109,251)"/>
<path d="M0 0 C1.11503906 -0.01417969 2.23007813 -0.02835937 3.37890625 -0.04296875 C6.32241377 0.17882811 7.9581192 0.6537999 10.4375 2.1875 C9.6125 2.64125 8.7875 3.095 7.9375 3.5625 C6.7 4.366875 6.7 4.366875 5.4375 5.1875 C5.4375 5.8475 5.4375 6.5075 5.4375 7.1875 C6.4275 7.8475 7.4175 8.5075 8.4375 9.1875 C8.4375 9.8475 8.4375 10.5075 8.4375 11.1875 C6.81123596 12.56982443 5.1449998 13.90687515 3.4375 15.1875 C5.0875 16.5075 6.7375 17.8275 8.4375 19.1875 C7.87160156 19.52523437 7.30570312 19.86296875 6.72265625 20.2109375 C5.98917969 20.65695313 5.25570312 21.10296875 4.5 21.5625 C3.76910156 22.00335938 3.03820312 22.44421875 2.28515625 22.8984375 C0.29977728 24.0648984 0.29977728 24.0648984 -0.5625 26.1875 C0.571875 26.47625 1.70625 26.765 2.875 27.0625 C4.6384375 27.619375 4.6384375 27.619375 6.4375 28.1875 C6.9325 29.1775 6.9325 29.1775 7.4375 30.1875 C6.88320312 30.38085938 6.32890625 30.57421875 5.7578125 30.7734375 C5.03335938 31.03382813 4.30890625 31.29421875 3.5625 31.5625 C2.84320313 31.81773437 2.12390625 32.07296875 1.3828125 32.3359375 C-0.74407994 33.12627783 -0.74407994 33.12627783 -2.5625 35.1875 C1.8925 37.1675 1.8925 37.1675 6.4375 39.1875 C2.98069097 41.95294722 -0.70591602 44.03671278 -4.5625 46.1875 C-4.5625 46.8475 -4.5625 47.5075 -4.5625 48.1875 C-1.9225 49.1775 0.7175 50.1675 3.4375 51.1875 C3.4375 52.1775 3.4375 53.1675 3.4375 54.1875 C2.51517578 54.58582031 2.51517578 54.58582031 1.57421875 54.9921875 C0.76597656 55.34539062 -0.04226562 55.69859375 -0.875 56.0625 C-1.67550781 56.41054687 -2.47601563 56.75859375 -3.30078125 57.1171875 C-5.7586834 58.21321894 -5.7586834 58.21321894 -8.5625 60.1875 C-8.8925 61.1775 -9.2225 62.1675 -9.5625 63.1875 C-8.92441406 63.36925781 -8.28632812 63.55101562 -7.62890625 63.73828125 C-6.38947266 64.11533203 -6.38947266 64.11533203 -5.125 64.5 C-4.30128906 64.74363281 -3.47757812 64.98726563 -2.62890625 65.23828125 C-1.94699219 65.55152344 -1.26507813 65.86476563 -0.5625 66.1875 C-0.2325 67.1775 0.0975 68.1675 0.4375 69.1875 C-0.24957031 69.57421875 -0.93664062 69.9609375 -1.64453125 70.359375 C-2.54558594 70.88015625 -3.44664063 71.4009375 -4.375 71.9375 C-5.26832031 72.44796875 -6.16164062 72.9584375 -7.08203125 73.484375 C-9.54180611 75.17329128 -10.94084834 76.70922836 -12.5625 79.1875 C-11.85222656 79.36925781 -11.14195313 79.55101562 -10.41015625 79.73828125 C-9.49105469 79.98964844 -8.57195312 80.24101562 -7.625 80.5 C-6.70847656 80.74363281 -5.79195312 80.98726563 -4.84765625 81.23828125 C-4.09355469 81.55152344 -3.33945313 81.86476563 -2.5625 82.1875 C-2.2325 83.1775 -1.9025 84.1675 -1.5625 85.1875 C0.45258358 85.92073796 0.45258358 85.92073796 2.4375 86.1875 C1.83164063 86.25066406 1.22578125 86.31382812 0.6015625 86.37890625 C-6.76802804 87.45600025 -11.93885496 90.3316988 -17.5625 95.1875 C-18.2225 96.1775 -18.8825 97.1675 -19.5625 98.1875 C-18.70785156 98.38085938 -17.85320312 98.57421875 -16.97265625 98.7734375 C-15.86792969 99.03382813 -14.76320312 99.29421875 -13.625 99.5625 C-12.52285156 99.81773437 -11.42070313 100.07296875 -10.28515625 100.3359375 C-9.38667969 100.61695313 -8.48820312 100.89796875 -7.5625 101.1875 C-7.2325 101.8475 -6.9025 102.5075 -6.5625 103.1875 C-4.03516765 103.84305119 -4.03516765 103.84305119 -1.5625 104.1875 C-1.5625 104.5175 -1.5625 104.8475 -1.5625 105.1875 C-2.41070312 105.32285156 -3.25890625 105.45820313 -4.1328125 105.59765625 C-13.85824842 107.38243405 -25.81396098 110.36587174 -32.5625 118.1875 C-31.56347656 118.51363281 -30.56445312 118.83976562 -29.53515625 119.17578125 C-28.23156034 119.61656548 -26.92818617 120.05800586 -25.625 120.5 C-24.96564453 120.71333984 -24.30628906 120.92667969 -23.62695312 121.14648438 C-21.90563703 121.73791093 -20.22918068 122.45613827 -18.5625 123.1875 C-18.2325 124.1775 -17.9025 125.1675 -17.5625 126.1875 C-13.2725 126.1875 -8.9825 126.1875 -4.5625 126.1875 C-4.5625 126.5175 -4.5625 126.8475 -4.5625 127.1875 C-15.1225 127.1875 -25.6825 127.1875 -36.5625 127.1875 C-36.5625 138.7375 -36.5625 150.2875 -36.5625 162.1875 C-38.8725 162.1875 -41.1825 162.1875 -43.5625 162.1875 C-43.56121094 161.48238281 -43.55992188 160.77726563 -43.55859375 160.05078125 C-45.13830224 155.54523137 -48.71502588 153.87591427 -52.625 151.375 C-53.38361328 150.87291016 -54.14222656 150.37082031 -54.92382812 149.85351562 C-56.79500774 148.61783098 -58.67418518 147.39677034 -60.5625 146.1875 C-59.325 145.011875 -59.325 145.011875 -58.0625 143.8125 C-55.33261494 141.55028736 -55.33261494 141.55028736 -55.5625 139.1875 C-56.449375 138.5275 -57.33625 137.8675 -58.25 137.1875 C-63.63113772 132.85198619 -66.47870362 126.29835279 -67.5625 119.5625 C-67.87559616 113.60323642 -66.41499143 109.38801331 -62.56640625 104.81640625 C-60.99922399 103.12236944 -59.42477626 101.43502995 -57.84375 99.75390625 C-45.35475639 85.70378844 -43.53398806 67.02419136 -40.78515625 49.18359375 C-38.3286046 33.34114067 -34.83214269 17.49509366 -21.8671875 6.84375 C-14.84661604 1.79845797 -8.64511758 0.05008759 0 0 Z " fill="#FDB6B6" transform="translate(96.5625,120.8125)"/>
<path d="M0 0 C0 9.9 0 19.8 0 30 C7.26 30 14.52 30 22 30 C22 25.05 22 20.1 22 15 C25.69909685 18.69909685 27.40344503 20.59811713 29.84765625 24.74609375 C32.25439598 27.89266618 33.47466997 28.87268186 37.37060547 29.81689453 C41.42173632 30.11038077 45.38133702 30.14723021 49.4375 30.0625 C50.85092625 30.06557865 52.26434979 30.07270346 53.67773438 30.08398438 C57.11970536 30.10271637 60.55849732 30.06644564 64 30 C64.33 28.35 64.66 26.7 65 25 C71.00511256 25.35540462 76.70718682 26.09937083 82.5625 27.5 C90.98769186 29.42120615 99.39456765 29.71705495 108 30 C108.33 30.99 108.66 31.98 109 33 C106.525 33.495 106.525 33.495 104 34 C104.99 36.97 104.99 36.97 106 40 C106.66 40 107.32 40 108 40 C108.66 38.35 109.32 36.7 110 35 C110.66 35 111.32 35 112 35 C112.33 38.3 112.66 41.6 113 45 C111.68 44.67 110.36 44.34 109 44 C109 43.01 109 42.02 109 41 C108.67 41.99 108.34 42.98 108 44 C107 44 106 44 105 44 C105 44.33 105 44.66 105 45 C101.7 45 98.4 45 95 45 C95.33 44.01 95.66 43.02 96 42 C94.35 42 92.7 42 91 42 C91.33 42.99 91.66 43.98 92 45 C90.68 44.67 89.36 44.34 88 44 C88.2165625 43.44570313 88.433125 42.89140625 88.65625 42.3203125 C89.07390625 41.23363281 89.07390625 41.23363281 89.5 40.125 C89.91765625 39.04605469 89.91765625 39.04605469 90.34375 37.9453125 C91.10655018 36.02632539 91.10655018 36.02632539 91 34 C89.35 34 87.7 34 86 34 C85.67 34.99 85.34 35.98 85 37 C83.68 36.67 82.36 36.34 81 36 C81 36.99 81 37.98 81 39 C81.99 39.33 82.98 39.66 84 40 C83.01 40 82.02 40 81 40 C81 41.32 81 42.64 81 44 C82.32 44 83.64 44 85 44 C85.33 43.34 85.66 42.68 86 42 C86 42.99 86 43.98 86 45 C81.71 45 77.42 45 73 45 C72.67 43.68 72.34 42.36 72 41 C71.01 41 70.02 41 69 41 C69 41.99 69 42.98 69 44 C69.66 44.33 70.32 44.66 71 45 C69.68 44.67 68.36 44.34 67 44 C67 40.7 67 37.4 67 34 C56.77 34 46.54 34 36 34 C35.67 37.63 35.34 41.26 35 45 C31.26360784 43.75453595 30.81243487 42.36595047 29 39 C28.67 40.65 28.34 42.3 28 44 C28.66 44.33 29.32 44.66 30 45 C26.7 45 23.4 45 20 45 C20 41.37 20 37.74 20 34 C21.65 34 23.3 34 25 34 C22.69 33.67 20.38 33.34 18 33 C18 33.99 18 34.98 18 36 C17.34 36 16.68 36 16 36 C16 38.97 16 41.94 16 45 C14.35 43.35 12.7 41.7 11 40 C11 41.65 11 43.3 11 45 C9.02 44.505 9.02 44.505 7 44 C7 40.7 7 37.4 7 34 C-23.69 33.67 -54.38 33.34 -86 33 C-85.67 32.34 -85.34 31.68 -85 31 C-82.53531117 30.39240958 -80.1390738 29.91012719 -77.640625 29.4921875 C-76.89923279 29.36184113 -76.15784058 29.23149475 -75.39398193 29.09719849 C-73.82099593 28.82250128 -72.24725354 28.55210645 -70.67285156 28.28564453 C-68.27224685 27.87877058 -65.87437276 27.45815407 -63.4765625 27.03515625 C-61.94805895 26.77001177 -60.41941706 26.50566334 -58.890625 26.2421875 C-58.17585999 26.11721893 -57.46109497 25.99225037 -56.72467041 25.86349487 C-53.11105517 25.25685426 -49.66537236 24.85820092 -46 25 C-46 26.65 -46 28.3 -46 30 C-38.74 30 -31.48 30 -24 30 C-23.67 22.74 -23.34 15.48 -23 8 C-21.22625 7.79375 -19.4525 7.5875 -17.625 7.375 C-11.81647844 6.43791942 -7.72647463 4.48431642 -2.86328125 1.2421875 C-1 0 -1 0 0 0 Z " fill="#565656" transform="translate(105,286)"/>
<path d="M0 0 C4.29 0 8.58 0 13 0 C13 20.79 13 41.58 13 63 C8.71 63 4.42 63 0 63 C-0.33 62.01 -0.66 61.02 -1 60 C-1.5775 60.474375 -2.155 60.94875 -2.75 61.4375 C-7.10480567 64.4616706 -11.80354175 64.51672099 -17 64 C-23.04871379 62.22710113 -26.53316477 59.11881711 -30 54 C-32.00511838 47.98464485 -32.16492384 40.51654579 -30.1640625 34.4765625 C-27.34921906 29.54586359 -23.32586488 26.00067272 -18 24 C-11.97170415 23.03100036 -7.21732468 23.6555611 -2 27 C-1.67 27.33 -1.34 27.66 -1 28 C-0.67 18.76 -0.34 9.52 0 0 Z M-13 42 C-13.2500773 44.54190002 -13.2500773 44.54190002 -13 47 C-11.88163776 48.34404775 -11.88163776 48.34404775 -9 48.125 C-6.11836224 48.34404775 -6.11836224 48.34404775 -5 47 C-4.83333333 44 -4.83333333 44 -5 41 C-6.05310277 39.72996677 -6.05310277 39.72996677 -8.4375 39.8125 C-11.16734675 39.73160017 -11.16734675 39.73160017 -13 42 Z " fill="#FF3535" transform="translate(407,249)"/>
<path d="M0 0 C27 0 27 0 37 4 C43.06368771 10.18743644 43.35032615 14.12575367 43.28125 22.5703125 C42.8221503 28.16877833 40.53658724 30.58161178 36.5625 34.25 C31.49582025 37.71017154 27.22735685 38.27409969 21.1875 38.125 C18.815625 38.08375 16.44375 38.0425 14 38 C14 45.59 14 53.18 14 61 C9.38 61 4.76 61 0 61 C0 40.87 0 20.74 0 0 Z " fill="#1F1B1B" transform="translate(63,251)"/>
<path d="M0 0 C0.99 0.66 1.98 1.32 3 2 C2.39301257 6.12751449 0.96189209 9.3321148 -1 13 C-1.556875 12.855625 -2.11375 12.71125 -2.6875 12.5625 C-11.43398609 10.31162444 -11.43398609 10.31162444 -20 12 C-20 13.98 -20 15.96 -20 18 C-19.45585449 18.26627197 -18.91170898 18.53254395 -18.35107422 18.80688477 C-15.85051758 20.04227565 -13.363024 21.30207142 -10.875 22.5625 C-9.59109375 23.18995117 -9.59109375 23.18995117 -8.28125 23.83007812 C-2.76305006 26.65284963 1.79532457 29.55595808 5 35 C6.27963749 40.21264095 6.02625509 45.47811734 3.9921875 50.4765625 C0.33201958 56.06093298 -4.57936497 58.61748545 -11 60 C-22.57938994 61.59492157 -30.33941074 58.83505545 -40 53 C-38.57271181 48.40953257 -36.80273303 44.92382624 -34 41 C-31.25814847 42.048355 -28.78409929 43.12757769 -26.25 44.625 C-22.13110988 46.36760736 -18.4240542 46.64886128 -14 46 C-10.83668777 44.35296997 -10.83668777 44.35296997 -10.3125 41.6875 C-11.13356709 38.47787412 -11.72203913 38.21474322 -14.4375 36.5 C-16.70411395 35.20823063 -18.99796114 34.00103485 -21.32421875 32.8203125 C-27.28810186 29.72192841 -31.93553862 26.12892277 -35 20 C-35.53749296 15.10088383 -35.56674874 11.1552955 -33.375 6.6875 C-23.75735594 -4.19562355 -13.29306396 -5.31722558 0 0 Z " fill="#FF3535" transform="translate(300,253)"/>
<path d="M0 0 C4.78817309 2.93468673 8.52191563 7.07355938 10.30078125 12.41015625 C10.93313932 18.24651024 10.69760054 23.40720873 7.77734375 28.5859375 C4.32420576 32.85211592 -0.54362702 35.69162567 -5.69921875 37.41015625 C-13.6055645 38.02297339 -21.23260778 38.5564383 -27.69921875 33.41015625 C-33.03297875 28.35773743 -34.80164027 24.49880772 -35.07421875 17.16015625 C-34.99734756 11.39481695 -33.68142176 7.6114757 -29.69921875 3.41015625 C-20.65147984 -3.6484883 -10.53859446 -4.68942241 0 0 Z M-16.69921875 15.41015625 C-16.37722909 18.50942444 -16.37722909 18.50942444 -15.69921875 21.41015625 C-13.91780128 22.27374248 -13.91780128 22.27374248 -11.69921875 22.41015625 C-9.42777801 20.55583538 -9.42777801 20.55583538 -7.69921875 18.41015625 C-8.35921875 16.76015625 -9.01921875 15.11015625 -9.69921875 13.41015625 C-13.65379723 13.06191818 -13.65379723 13.06191818 -16.69921875 15.41015625 Z " fill="#FF3535" transform="translate(475.69921875,275.58984375)"/>
<path d="M0 0 C4.29 0 8.58 0 13 0 C13.04898437 1.69769531 13.09796875 3.39539063 13.1484375 5.14453125 C13.22346444 7.36720423 13.2990123 9.58985966 13.375 11.8125 C13.4059375 12.93205078 13.436875 14.05160156 13.46875 15.20507812 C13.50742187 16.27822266 13.54609375 17.35136719 13.5859375 18.45703125 C13.6173584 19.44678955 13.6487793 20.43654785 13.68115234 21.45629883 C13.83773433 24.24075094 13.83773433 24.24075094 16 27 C18.20725073 27.36362818 18.20725073 27.36362818 20.625 27.1875 C21.44226563 27.16042969 22.25953125 27.13335937 23.1015625 27.10546875 C24.04128906 27.05326172 24.04128906 27.05326172 25 27 C26.59098486 23.45796529 27.27814564 20.57284927 27.4140625 16.69921875 C27.45273437 15.72275391 27.49140625 14.74628906 27.53125 13.74023438 C27.5621875 12.73283203 27.593125 11.72542969 27.625 10.6875 C27.66367187 9.66076172 27.70234375 8.63402344 27.7421875 7.57617188 C27.83614489 5.05106691 27.91914808 2.52555856 28 0 C32.29 0 36.58 0 41 0 C41.08102542 4.37537287 41.14052099 8.74924085 41.1875 13.125 C41.21263672 14.3625 41.23777344 15.6 41.26367188 16.875 C41.27333984 18.07382812 41.28300781 19.27265625 41.29296875 20.5078125 C41.3086792 21.60754395 41.32438965 22.70727539 41.34057617 23.84033203 C40.84866961 28.40395552 39.04088453 31.66171989 36.25 35.25 C29.56530122 40.44921016 20.00309022 39.67558554 12 39 C7.01281321 37.82039594 4.65957482 35.98759866 1.80859375 31.71875 C-1.01539412 25.75752518 -0.42714914 19.45231666 -0.25 13 C-0.23195313 11.74832031 -0.21390625 10.49664062 -0.1953125 9.20703125 C-0.1484523 6.13768806 -0.07671855 3.06874205 0 0 Z " fill="#FF3434" transform="translate(333,274)"/>
<path d="M0 0 C4.29 0 8.58 0 13 0 C13 4.62 13 9.24 13 14 C15.64 14 18.28 14 21 14 C21 17.3 21 20.6 21 24 C18.36 24 15.72 24 13 24 C13.495 32.415 13.495 32.415 14 41 C15.98 41 17.96 41 20 41 C21.485 45.95 21.485 45.95 23 51 C17.8489551 53.57552245 13.67417097 53.79651894 8 53 C4.41612513 51.3529727 2.45806935 49.03808207 0.85546875 45.40625 C-0.2338093 41.0690333 -0.21724075 37.07384245 -0.125 32.625 C-0.11597656 31.79355469 -0.10695313 30.96210938 -0.09765625 30.10546875 C-0.0742622 28.07018663 -0.03839725 26.03505436 0 24 C-1.65 24 -3.3 24 -5 24 C-5 20.7 -5 17.4 -5 14 C-3.35 14 -1.7 14 0 14 C0 9.38 0 4.76 0 0 Z " fill="#FF3636" transform="translate(310,260)"/>
<path d="M0 0 C2.64 0 5.28 0 8 0 C8.495 1.485 8.495 1.485 9 3 C7.35 3.33 5.7 3.66 4 4 C4.99 6.97 4.99 6.97 6 10 C6.66 10 7.32 10 8 10 C8.66 8.35 9.32 6.7 10 5 C10.66 5 11.32 5 12 5 C12.495 9.95 12.495 9.95 13 15 C11.68 14.67 10.36 14.34 9 14 C9 13.01 9 12.02 9 11 C8.67 11.99 8.34 12.98 8 14 C7 14 6 14 5 14 C5 14.33 5 14.66 5 15 C1.7 15 -1.6 15 -5 15 C-4.67 14.01 -4.34 13.02 -4 12 C-5.65 12 -7.3 12 -9 12 C-8.505 13.485 -8.505 13.485 -8 15 C-9.32 14.67 -10.64 14.34 -12 14 C-11.7834375 13.44570313 -11.566875 12.89140625 -11.34375 12.3203125 C-11.0653125 11.59585937 -10.786875 10.87140625 -10.5 10.125 C-10.2215625 9.40570313 -9.943125 8.68640625 -9.65625 7.9453125 C-8.89344982 6.02632539 -8.89344982 6.02632539 -9 4 C-10.65 4 -12.3 4 -14 4 C-14.33 4.99 -14.66 5.98 -15 7 C-16.32 6.67 -17.64 6.34 -19 6 C-19 6.99 -19 7.98 -19 9 C-18.01 9.33 -17.02 9.66 -16 10 C-16.99 10 -17.98 10 -19 10 C-19 11.32 -19 12.64 -19 14 C-17.68 14 -16.36 14 -15 14 C-14.67 13.34 -14.34 12.68 -14 12 C-14 12.99 -14 13.98 -14 15 C-18.29 15 -22.58 15 -27 15 C-27.495 13.02 -27.495 13.02 -28 11 C-28.99 11 -29.98 11 -31 11 C-31 11.99 -31 12.98 -31 14 C-30.01 14.495 -30.01 14.495 -29 15 C-30.32 14.67 -31.64 14.34 -33 14 C-33 10.7 -33 7.4 -33 4 C-43.23 4 -53.46 4 -64 4 C-64.33 7.63 -64.66 11.26 -65 15 C-68.73639216 13.75453595 -69.18756513 12.36595047 -71 9 C-71.33 10.65 -71.66 12.3 -72 14 C-71.34 14.33 -70.68 14.66 -70 15 C-73.3 15 -76.6 15 -80 15 C-80 11.37 -80 7.74 -80 4 C-78.35 4 -76.7 4 -75 4 C-77.31 3.67 -79.62 3.34 -82 3 C-82 3.99 -82 4.98 -82 6 C-82.66 6 -83.32 6 -84 6 C-84 8.97 -84 11.94 -84 15 C-85.65 13.35 -87.3 11.7 -89 10 C-89 11.65 -89 13.3 -89 15 C-90.32 14.67 -91.64 14.34 -93 14 C-93 10.7 -93 7.4 -93 4 C-99.6 3.67 -106.2 3.34 -113 3 C-113 2.67 -113 2.34 -113 2 C-75.71 1.67 -38.42 1.34 0 1 C0 0.67 0 0.34 0 0 Z " fill="#F2AFAF" transform="translate(205,316)"/>
<path d="M0 0 C6.8295176 0 9.79723074 0.00977149 14.70703125 4.59375 C18.83661213 9.31327101 19.77370168 13.16919305 19.38671875 19.38671875 C18.60715748 24.65466312 17.05593598 28.33052698 12.9375 31.875 C7.61057597 35.72851951 7.94193281 35 0 35 C0 23.45 0 11.9 0 0 Z " fill="#FBF8F8" transform="translate(226,264)"/>
<path d="M0 0 C4.29 0 8.58 0 13 0 C13 12.54 13 25.08 13 38 C8.71 38 4.42 38 0 38 C0 25.46 0 12.92 0 0 Z " fill="#FF3232" transform="translate(425,274)"/>
<path d="M0 0 C9.14504844 -0.40411834 17.17634256 0.57385524 26 3 C25.34695118 6.89017121 24.19461184 10.30443912 22.71484375 13.95703125 C22.04291992 15.62475586 22.04291992 15.62475586 21.35742188 17.32617188 C20.88884766 18.47666016 20.42027344 19.62714844 19.9375 20.8125 C19.46505859 21.98232422 18.99261719 23.15214844 18.50585938 24.35742188 C17.34111284 27.23987543 16.17236766 30.12063965 15 33 C12.69 33 10.38 33 8 33 C8 37.62 8 42.24 8 47 C3.89396582 43.71517265 2.28677845 42.33284339 0 38 C0.72316406 37.22076172 0.72316406 37.22076172 1.4609375 36.42578125 C2.09257812 35.72839844 2.72421875 35.03101563 3.375 34.3125 C4.00148437 33.62800781 4.62796875 32.94351563 5.2734375 32.23828125 C9.78274179 26.39250895 9.74800364 20.11065187 9 13 C7.33540205 7.51132568 4.2294135 3.75947867 0 0 Z " fill="#575757" transform="translate(144,250)"/>
<path d="M0 0 C0 9.24 0 18.48 0 28 C-1.98 28 -3.96 28 -6 28 C-5.99871094 27.29488281 -5.99742188 26.58976562 -5.99609375 25.86328125 C-7.57580224 21.35773137 -11.15252588 19.68841427 -15.0625 17.1875 C-15.82111328 16.68541016 -16.57972656 16.18332031 -17.36132812 15.66601562 C-19.23250774 14.43033098 -21.11168518 13.20927034 -23 12 C-19.0849017 7.54647954 -15.26132329 5.42127099 -9.8125 3.1875 C-9.08869141 2.87619141 -8.36488281 2.56488281 -7.61914062 2.24414062 C-2.31705014 0 -2.31705014 0 0 0 Z " fill="#545454" transform="translate(59,255)"/>
<path d="M0 0 C7.31821895 2.43940632 7.31821895 2.43940632 10.08203125 6.09765625 C11.94446028 9.95724322 11.72023639 13.85536696 11 18 C9.47768948 22.02747202 7.63606904 24.57595397 4 27 C2.68 27 1.36 27 0 27 C0 18.09 0 9.18 0 0 Z " fill="#FFB8B8" transform="translate(230,268)"/>
<path d="M0 0 C8.03846154 0 8.03846154 0 13 3 C15 5 15 5 15.3125 7.875 C14.96343194 11.36568057 14.50005206 12.58615664 12 15 C7.63889437 17.42283646 5.43486238 17 0 17 C0 11.39 0 5.78 0 0 Z " fill="#E7E7E7" transform="translate(77,262)"/>
<path d="M0 0 C2.69990662 1.79993774 4.5418865 3.083773 6 6 C6.55881444 10.09797257 6.1370529 11.76872323 4 15.375 C0.45714286 18.475 0.45714286 18.475 -3 18.75 C-6.54826607 18.46775156 -7.11733807 17.89732919 -10 15.375 C-12.17817423 11.69933099 -12.79812987 10.16801155 -12 6 C-8.54235344 0.81353016 -6.24330406 -0.61208863 0 0 Z M-7 7 C-7.2500773 9.54190002 -7.2500773 9.54190002 -7 12 C-5.88163776 13.34404775 -5.88163776 13.34404775 -3 13.125 C-0.11836224 13.34404775 -0.11836224 13.34404775 1 12 C1.16666667 9 1.16666667 9 1 6 C-0.05310277 4.72996677 -0.05310277 4.72996677 -2.4375 4.8125 C-5.16734675 4.73160017 -5.16734675 4.73160017 -7 7 Z " fill="#FFF1F1" transform="translate(401,284)"/>
<path d="M0 0 C4.25331827 0.86802414 6.18199992 2.40158324 9.0625 5.625 C9.64489453 9.77456101 9.61116881 13.18429711 7.0625 16.625 C3.84294012 18.92468563 0.93690468 19.17848638 -2.9375 18.625 C-5.79551731 16.63681405 -7.55651083 15.14895669 -8.421875 11.6875 C-8.69476358 7.68513415 -8.18016331 5.9675835 -5.8125 2.625 C-2.9375 0.625 -2.9375 0.625 0 0 Z M-3.9375 7.625 C-3.61551034 10.72426819 -3.61551034 10.72426819 -2.9375 13.625 C-1.15608253 14.48858623 -1.15608253 14.48858623 1.0625 14.625 C3.33394074 12.77067913 3.33394074 12.77067913 5.0625 10.625 C4.4025 8.975 3.7425 7.325 3.0625 5.625 C-0.89207848 5.27676193 -0.89207848 5.27676193 -3.9375 7.625 Z " fill="#FFF6F6" transform="translate(462.9375,283.375)"/>
<path d="M0 0 C1.1875 3.0625 1.1875 3.0625 2 6 C2.66 6 3.32 6 4 6 C4.66 4.35 5.32 2.7 6 1 C6.66 1 7.32 1 8 1 C8.33 4.3 8.66 7.6 9 11 C7.68 10.67 6.36 10.34 5 10 C5 9.01 5 8.02 5 7 C4.67 7.99 4.34 8.98 4 10 C3 10 2 10 1 10 C1 10.33 1 10.66 1 11 C-2.3 11 -5.6 11 -9 11 C-8.67 10.01 -8.34 9.02 -8 8 C-9.65 8 -11.3 8 -13 8 C-12.67 8.99 -12.34 9.98 -12 11 C-13.32 10.67 -14.64 10.34 -16 10 C-15.7834375 9.44570313 -15.566875 8.89140625 -15.34375 8.3203125 C-15.0653125 7.59585937 -14.786875 6.87140625 -14.5 6.125 C-14.2215625 5.40570313 -13.943125 4.68640625 -13.65625 3.9453125 C-12.89344982 2.02632539 -12.89344982 2.02632539 -13 0 C-8.52745503 -1.49084832 -4.47254497 -1.49084832 0 0 Z " fill="#F7B1B1" transform="translate(209,320)"/>
<path d="M0 0 C7.92 0 7.92 0 12 3 C13.5788684 4.5788684 13.28319742 6.19292337 13.375 8.375 C13.30649561 12.68392641 13.30649561 12.68392641 11 15.0625 C8 16 8 16 0 16 C0 10.72 0 5.44 0 0 Z " fill="#EBEBEB" transform="translate(122,262)"/>
<path d="M0 0 C2.4375 1.5625 2.4375 1.5625 4 4 C4.56288002 7.94016013 4.60396028 10.05782196 2.4375 13.4375 C-0.94217804 15.60396028 -3.05983987 15.56288002 -7 15 C-9.4375 13.4375 -9.4375 13.4375 -11 11 C-11.56288002 7.05983987 -11.60396028 4.94217804 -9.4375 1.5625 C-6.05782196 -0.60396028 -3.94016013 -0.56288002 0 0 Z " fill="#FF3636" transform="translate(435,251)"/>
<path d="M0 0 C5.94 0 11.88 0 18 0 C19.32 3.3 20.64 6.6 22 10 C18.70250315 11.09916562 17.45118637 10.89023727 14.11328125 10.22265625 C13.17548828 10.03896484 12.23769531 9.85527344 11.27148438 9.66601562 C10.29501953 9.46685547 9.31855469 9.26769531 8.3125 9.0625 C7.32443359 8.86720703 6.33636719 8.67191406 5.31835938 8.47070312 C2.87747148 7.98724224 0.43820991 7.49676034 -2 7 C-1.34 4.69 -0.68 2.38 0 0 Z " fill="#F9B4B4" transform="translate(173,304)"/>
<path d="M0 0 C1.15242187 0.10183594 2.30484375 0.20367187 3.4921875 0.30859375 C4.36101562 0.39238281 5.22984375 0.47617187 6.125 0.5625 C5.795 1.5525 5.465 2.5425 5.125 3.5625 C3.805 3.2325 2.485 2.9025 1.125 2.5625 C1.125 3.5525 1.125 4.5425 1.125 5.5625 C2.115 5.8925 3.105 6.2225 4.125 6.5625 C3.135 6.5625 2.145 6.5625 1.125 6.5625 C1.125 7.8825 1.125 9.2025 1.125 10.5625 C2.445 10.5625 3.765 10.5625 5.125 10.5625 C5.455 9.9025 5.785 9.2425 6.125 8.5625 C6.125 9.5525 6.125 10.5425 6.125 11.5625 C1.835 11.5625 -2.455 11.5625 -6.875 11.5625 C-7.205 10.2425 -7.535 8.9225 -7.875 7.5625 C-8.865 7.5625 -9.855 7.5625 -10.875 7.5625 C-10.875 8.5525 -10.875 9.5425 -10.875 10.5625 C-10.215 10.8925 -9.555 11.2225 -8.875 11.5625 C-10.195 11.2325 -11.515 10.9025 -12.875 10.5625 C-12.875 7.2625 -12.875 3.9625 -12.875 0.5625 C-8.41295824 -0.3529645 -4.52954615 -0.41597873 0 0 Z " fill="#F9B3B3" transform="translate(184.875,319.4375)"/>
<path d="M0 0 C-0.33 3.63 -0.66 7.26 -1 11 C-4.73639216 9.75453595 -5.18756513 8.36595047 -7 5 C-7.33 6.65 -7.66 8.3 -8 10 C-7.34 10.33 -6.68 10.66 -6 11 C-9.3 11 -12.6 11 -16 11 C-16 7.37 -16 3.74 -16 0 C-10.3110884 -0.78769545 -5.63643263 -1.07931689 0 0 Z " fill="#F9B3B3" transform="translate(141,320)"/>
<path d="M0 0 C0.86625 0.825 1.7325 1.65 2.625 2.5 C8.12675595 7.26135401 14.64541197 10.5274512 21 14 C21 14.99 21 15.98 21 17 C15.04327229 17.49639398 11.02177765 16.26415547 6 13 C5.46890625 12.45988281 4.9378125 11.91976563 4.390625 11.36328125 C3.08653613 9.76664955 3.08653613 9.76664955 1 10 C0.34 10.66 -0.32 11.32 -1 12 C-0.67 8.04 -0.34 4.08 0 0 Z " fill="#FFBBBB" transform="translate(264,279)"/>
<path d="M0 0 C2.08432499 3.12648749 3.28558611 6.05730868 4.625 9.5625 C5.07101563 10.71878906 5.51703125 11.87507813 5.9765625 13.06640625 C7 16 7 16 7 18 C2.38 18 -2.24 18 -7 18 C-5.02989474 11.79416842 -2.74844552 5.90148454 0 0 Z " fill="#E9E7E7" transform="translate(182,270)"/>
<path d="M0 0 C5.625 -0.25 5.625 -0.25 9 2 C9.3125 5.5 9.3125 5.5 9 9 C7 11 7 11 3.375 11.125 C2.26125 11.08375 1.1475 11.0425 0 11 C0 7.37 0 3.74 0 0 Z " fill="#5F4646" transform="translate(160,320)"/>
<path d="M0 0 C6.23118103 -0.55635545 9.28996166 0.29481245 14.3359375 4.00390625 C14.88507813 4.33261719 15.43421875 4.66132813 16 5 C16.66 4.67 17.32 4.34 18 4 C18 6.31 18 8.62 18 11 C12 8 6 5 0 2 C0 1.34 0 0.68 0 0 Z " fill="#FFBCBC" transform="translate(283,267)"/>
<path d="M0 0 C0 0.33 0 0.66 0 1 C-2.31 1 -4.62 1 -7 1 C-7 5.62 -7 10.24 -7 15 C-11.10603418 11.71517265 -12.71322155 10.33284339 -15 6 C-10.28617982 0.19837516 -7.39841857 -0.88781023 0 0 Z " fill="#736969" transform="translate(159,282)"/>
<path d="M0 0 C-0.020625 0.721875 -0.04125 1.44375 -0.0625 2.1875 C-0.00179441 4.91925138 0.39258535 7.34256091 1 10 C-3.43076923 12.09230769 -3.43076923 12.09230769 -6.3125 11.625 C-6.869375 11.41875 -7.42625 11.2125 -8 11 C-8 9.68 -8 8.36 -8 7 C-6.02 7.66 -4.04 8.32 -2 9 C-2 8.34 -2 7.68 -2 7 C-3.65 6.67 -5.3 6.34 -7 6 C-7.33 4.35 -7.66 2.7 -8 1 C-5.29120665 -0.35439668 -2.99066732 -0.06501451 0 0 Z M-5 2 C-4.67 2.99 -4.34 3.98 -4 5 C-3.34 5 -2.68 5 -2 5 C-2.33 4.01 -2.66 3.02 -3 2 C-3.66 2 -4.32 2 -5 2 Z " fill="#191515" transform="translate(92,320)"/>
<path d="M0 0 C0.99 0 1.98 0 3 0 C3.66 1.98 4.32 3.96 5 6 C5.66 6 6.32 6 7 6 C7.66 4.35 8.32 2.7 9 1 C9.66 1 10.32 1 11 1 C11.33 4.3 11.66 7.6 12 11 C10.68 10.67 9.36 10.34 8 10 C8 9.01 8 8.02 8 7 C7.67 7.99 7.34 8.98 7 10 C6 10 5 10 4 10 C2.68 10.33 1.36 10.66 0 11 C0 7.37 0 3.74 0 0 Z " fill="#5E4646" transform="translate(206,320)"/>
<path d="M0 0 C3.3 0 6.6 0 10 0 C9.67 1.32 9.34 2.64 9 4 C8.34 4 7.68 4 7 4 C7 3.34 7 2.68 7 2 C6.01 2 5.02 2 4 2 C4 2.99 4 3.98 4 5 C5.32 5 6.64 5 8 5 C8 5.66 8 6.32 8 7 C6.68 7 5.36 7 4 7 C4 7.66 4 8.32 4 9 C5.98 8.67 7.96 8.34 10 8 C10 8.99 10 9.98 10 11 C6.7 11 3.4 11 0 11 C0.66 8.03 1.32 5.06 2 2 C1.34 2 0.68 2 0 2 C0 1.34 0 0.68 0 0 Z " fill="#191515" transform="translate(73,320)"/>
<path d="M0 0 C6.3782235 -0.36103152 6.3782235 -0.36103152 8.9375 1.125 C10.48138276 3.84949899 10.3267107 5.92891945 10 9 C8 11 8 11 6.0546875 11.1953125 C4.03645833 11.13020833 2.01822917 11.06510417 0 11 C0 7.37 0 3.74 0 0 Z M3 2 C3 4.31 3 6.62 3 9 C4.32 9 5.64 9 7 9 C7.67958603 6.60280568 7.67958603 6.60280568 8 4 C7.34 3.34 6.68 2.68 6 2 C5.01 2 4.02 2 3 2 Z " fill="#191515" transform="translate(62,320)"/>
<path d="M0 0 C2.875 -0.125 2.875 -0.125 6 0 C6.66 0.66 7.32 1.32 8 2 C7.835 2.969375 7.67 3.93875 7.5 4.9375 C6.6162949 8.16275753 6.6162949 8.16275753 9 11 C8.01 11 7.02 11 6 11 C5.67 9.68 5.34 8.36 5 7 C4.01 7 3.02 7 2 7 C2 7.99 2 8.98 2 10 C2.66 10.33 3.32 10.66 4 11 C2.68 10.67 1.36 10.34 0 10 C0 6.7 0 3.4 0 0 Z " fill="#765656" transform="translate(172,320)"/>
<path d="M0 0 C1.98 0 3.96 0 6 0 C2.92482916 10.55808656 2.92482916 10.55808656 1 15 C0.34 14.67 -0.32 14.34 -1 14 C-0.67 9.38 -0.34 4.76 0 0 Z " fill="#FEB8B8" transform="translate(152,283)"/>
<path d="M0 0 C0.99 0 1.98 0 3 0 C4.32 3.3 5.64 6.6 7 10 C5.68 9.67 4.36 9.34 3 9 C3.33 8.34 3.66 7.68 4 7 C2.35 7 0.7 7 -1 7 C-0.67 7.99 -0.34 8.98 0 10 C-1.32 9.67 -2.64 9.34 -4 9 C-2.68 6.03 -1.36 3.06 0 0 Z " fill="#644A4A" transform="translate(197,321)"/>
<path d="M0 0 C2.64 0 5.28 0 8 0 C7.67 0.99 7.34 1.98 7 3 C5.68 2.67 4.36 2.34 3 2 C3 2.99 3 3.98 3 5 C3.99 5.33 4.98 5.66 6 6 C5.01 6 4.02 6 3 6 C3 7.32 3 8.64 3 10 C4.32 10 5.64 10 7 10 C7.33 9.34 7.66 8.68 8 8 C8 8.99 8 9.98 8 11 C5.36 11 2.72 11 0 11 C0 7.37 0 3.74 0 0 Z " fill="#5C4444" transform="translate(183,320)"/>
<path d="M0 0 C4 2 4 2 6 5 C6.33 3.35 6.66 1.7 7 0 C7.66 0.33 8.32 0.66 9 1 C8.67 3.97 8.34 6.94 8 10 C6.35 8.35 4.7 6.7 3 5 C3 6.65 3 8.3 3 10 C1.68 9.67 0.36 9.34 -1 9 C-0.67 6.03 -0.34 3.06 0 0 Z " fill="#4D3939" transform="translate(113,321)"/>
<path d="M0 0 C2.31 0.33 4.62 0.66 7 1 C6.125 5.875 6.125 5.875 5 7 C3.33382885 7.04063832 1.66611905 7.042721 0 7 C0 4.69 0 2.38 0 0 Z " fill="#616161" transform="translate(81,267)"/>
<path d="M0 0 C3.73639216 1.24546405 4.18756513 2.63404953 6 6 C6 4.02 6 2.04 6 0 C6.99 0.33 7.98 0.66 9 1 C8.67 3.97 8.34 6.94 8 10 C4.26360784 8.75453595 3.81243487 7.36595047 2 4 C1.67 5.65 1.34 7.3 1 9 C1.66 9.33 2.32 9.66 3 10 C1.68 9.67 0.36 9.34 -1 9 C-0.67 6.03 -0.34 3.06 0 0 Z " fill="#392B2B" transform="translate(132,321)"/>
<path d="M0 0 C2.475 0.495 2.475 0.495 5 1 C5.625 3.375 5.625 3.375 6 6 C5.34 6.66 4.68 7.32 4 8 C2.68 8 1.36 8 0 8 C0 5.36 0 2.72 0 0 Z " fill="#747474" transform="translate(126,266)"/>
<path d="M0 0 C2.31 0 4.62 0 7 0 C6.67 0.99 6.34 1.98 6 3 C3.525 2.01 3.525 2.01 1 1 C2.39195915 3.7839183 4.15575779 3.97898997 7 5 C6.67 6.65 6.34 8.3 6 10 C3.69 10 1.38 10 -1 10 C-1 8.68 -1 7.36 -1 6 C-0.34 6 0.32 6 1 6 C1.33 6.66 1.66 7.32 2 8 C2.99 8 3.98 8 5 8 C5.33 7.34 5.66 6.68 6 6 C4.35 5.67 2.7 5.34 1 5 C0.67 3.35 0.34 1.7 0 0 Z " fill="#493737" transform="translate(221,321)"/>
<path d="M0 0 C1.8871875 0.0309375 1.8871875 0.0309375 3.8125 0.0625 C3.4825 1.0525 3.1525 2.0425 2.8125 3.0625 C2.1525 2.7325 1.4925 2.4025 0.8125 2.0625 C0.8125 4.3725 0.8125 6.6825 0.8125 9.0625 C-0.05375 7.8559375 -0.05375 7.8559375 -0.9375 6.625 C-3.16876893 4.08383261 -3.93206771 3.41129632 -7.1875 3.0625 C-7.1875 2.4025 -7.1875 1.7425 -7.1875 1.0625 C-4.43671116 0.14557039 -2.82801087 -0.04636083 0 0 Z " fill="#DFA0A0" transform="translate(119.1875,318.9375)"/>
<path d="M0 0 C0.99 0.33 1.98 0.66 3 1 C3 3.97 3 6.94 3 10 C1.68 10 0.36 10 -1 10 C-1.33 7.03 -1.66 4.06 -2 1 C-1.34 0.67 -0.68 0.34 0 0 Z " fill="#996F6F" transform="translate(95,321)"/>
<path d="M0 0 C1.32 0 2.64 0 4 0 C4.625 2.875 4.625 2.875 5 6 C4.34 6.66 3.68 7.32 3 8 C2.01 8 1.02 8 0 8 C0 5.36 0 2.72 0 0 Z " fill="#F8B2B2" transform="translate(163,322)"/>
<path d="M0 0 C-0.66 0.66 -1.32 1.32 -2 2 C-2.16681109 5.08347826 -2.16681109 5.08347826 -2 8 C-5.875 4.25 -5.875 4.25 -7 2 C-7.99 2 -8.98 2 -10 2 C-10 1.34 -10 0.68 -10 0 C-6.30581799 -1.231394 -3.7943739 -0.64432764 0 0 Z " fill="#D69A9A" transform="translate(141,320)"/>
<path d="M0 0 C1.32 0 2.64 0 4 0 C4 3.63 4 7.26 4 11 C2.68 10.67 1.36 10.34 0 10 C0 6.7 0 3.4 0 0 Z " fill="#6C4F4F" transform="translate(125,320)"/>
</svg>
